<?xml version="1.0" encoding="utf-8"?>
<!-- Generator: Adobe Illustrator 18.0.0, SVG Export Plug-In . SVG Version: 6.00 Build 0)  -->
<!DOCTYPE svg PUBLIC "-//W3C//DTD SVG 1.1//EN" "http://www.w3.org/Graphics/SVG/1.1/DTD/svg11.dtd">
<svg version="1.1" id="Layer_2_1_" xmlns="http://www.w3.org/2000/svg" xmlns:xlink="http://www.w3.org/1999/xlink" x="0px" y="0px"
	 viewBox="0 0 612 792" enable-background="new 0 0 612 792" xml:space="preserve">
<g id="Layer_56_copy" opacity="0.6">
	<g id="Layer_1_copy">
		<polygon fill="none" stroke="#53A5B6" stroke-width="2" stroke-miterlimit="10" points="559.6,421.5 540.9,438.9 517.7,425.1 		
			"/>
		<path fill="none" d="M540.9,441"/>
		<polygon fill="none" stroke="#53A5B6" stroke-width="2" stroke-miterlimit="10" points="545.9,483.1 511.4,463 540.9,438.9 		"/>
		<polygon fill="none" stroke="#53A5B6" stroke-width="2" stroke-miterlimit="10" points="505.2,518.1 545.9,483.1 511.4,463 		"/>
		<polygon fill="none" stroke="#53A5B6" stroke-width="2" stroke-miterlimit="10" points="482.2,486.2 505.2,518.1 511.4,463 		"/>
		<polygon fill="none" stroke="#53A5B6" stroke-width="2" stroke-miterlimit="10" points="482.2,486.2 505.2,518.1 479.3,542.1 		
			"/>
		<polygon fill="none" stroke="#53A5B6" stroke-width="2" stroke-miterlimit="10" points="489,578.9 505.2,518.1 479.3,542.1 		"/>
		<polygon fill="none" stroke="#53A5B6" stroke-width="2" stroke-miterlimit="10" points="407.4,547.4 479.3,542.1 489,578.9 		"/>
		<polyline fill="none" stroke="#53A5B6" stroke-width="2" stroke-miterlimit="10" points="489,578.9 400.3,607.6 405.7,547.9 
			482.2,486.2 		"/>
		<polygon fill="none" stroke="#53A5B6" stroke-width="2" stroke-miterlimit="10" points="366.4,593.2 400.3,607.6 335.4,624.7 		
			"/>
		<polygon fill="none" stroke="#53A5B6" stroke-width="2" stroke-miterlimit="10" points="335.4,624.7 355.4,641.9 400.3,607.6 		
			"/>
		<path fill="none" d="M314.5,617.4"/>
		<path fill="none" d="M302,613.3"/>
		<polygon fill="none" stroke="#53A5B6" stroke-width="2" stroke-miterlimit="10" points="303.6,637.9 296.9,612.8 335.4,624.7 		
			"/>
		<polygon fill="none" stroke="#53A5B6" stroke-width="2" stroke-miterlimit="10" points="254.2,620 296.9,612.8 303.6,637.9 		"/>
		<polygon fill="none" stroke="#53A5B6" stroke-width="2" stroke-miterlimit="10" points="207.6,629.2 254.2,620 189.7,582.8 		"/>
		<polygon fill="none" stroke="#53A5B6" stroke-width="2" stroke-miterlimit="10" points="207.2,553.9 139.2,565.6 189.7,582.8 		
			"/>
		<polygon fill="none" stroke="#53A5B6" stroke-width="2" stroke-miterlimit="10" points="138.2,540.3 139.2,565.6 99.5,532.4 
			130.2,496.4 		"/>
		<polygon fill="none" stroke="#53A5B6" stroke-width="2" stroke-miterlimit="10" points="89.8,495.6 128.6,496.8 99.5,532.4 		"/>
		<polygon fill="none" stroke="#53A5B6" stroke-width="2" stroke-miterlimit="10" points="141.3,438.7 130.2,496.4 89.8,495.6 
			138.6,439.4 89.8,495.6 78.1,451.4 		"/>
		<polygon fill="none" stroke="#53A5B6" stroke-width="2" stroke-miterlimit="10" points="64.2,368.5 108.1,365.8 78.1,451.4 		"/>
		<polygon fill="none" stroke="#53A5B6" stroke-width="2" stroke-miterlimit="10" points="84.6,349.9 64.2,368.5 108.1,365.8 		"/>
		<polygon fill="none" stroke="#53A5B6" stroke-width="2" stroke-miterlimit="10" points="79.1,305.9 111.3,325.2 84.6,349.9 		"/>
		<polygon fill="none" stroke="#53A5B6" stroke-width="2" stroke-miterlimit="10" points="119,273.3 111.3,325.2 78.1,303.9 
			79.1,305.9 		"/>
		<polygon fill="none" stroke="#53A5B6" stroke-width="2" stroke-miterlimit="10" points="141.7,302.2 119,273.3 111.3,325.2 		"/>
		<polygon fill="none" stroke="#53A5B6" stroke-width="2" stroke-miterlimit="10" points="146.8,247.8 119,273.3 141.7,302.2 		"/>
		<polygon fill="none" stroke="#53A5B6" stroke-width="2" stroke-miterlimit="10" points="141.7,302.2 218.9,238.5 146.8,247.8 		
			"/>
		<polygon fill="none" stroke="#53A5B6" stroke-width="2" stroke-miterlimit="10" points="146.8,247.8 136.1,207.3 218.9,238.5 		
			"/>
		<polygon fill="none" stroke="#53A5B6" stroke-width="2" stroke-miterlimit="10" points="223.9,180.2 218.9,238.5 136.1,207.3 		
			"/>
		<polygon fill="none" stroke="#53A5B6" stroke-width="2" stroke-miterlimit="10" points="223.9,180.2 255.7,193.5 218.9,238.5 		
			"/>
		<polygon fill="none" stroke="#53A5B6" stroke-width="2" stroke-miterlimit="10" points="255.7,193.5 326.9,177.3 321.2,148.8 
			290,162.8 		"/>
		<polygon fill="none" stroke="#53A5B6" stroke-width="2" stroke-miterlimit="10" points="269.4,146.6 290,162.8 223.9,180.2 		"/>
		<polygon fill="none" stroke="#53A5B6" stroke-width="2" stroke-miterlimit="10" points="370.7,165.7 371.1,167.4 326.9,177.3 
			321.2,148.8 		"/>
		<polygon fill="none" stroke="#53A5B6" stroke-width="2" stroke-miterlimit="10" points="370.7,165.7 416.7,157.8 434.5,208.6 		
			"/>
		<polygon fill="none" stroke="#53A5B6" stroke-width="2" stroke-miterlimit="10" points="347.8,206.2 434.5,208.6 371.6,167.3 		
			"/>
		<polygon fill="none" stroke="#53A5B6" stroke-width="2" stroke-miterlimit="10" points="485.6,221.4 434.5,208.6 415,234 		"/>
		<polygon fill="none" stroke="#53A5B6" stroke-width="2" stroke-miterlimit="10" points="493.8,292.3 415,234 487.3,221 		"/>
		<path fill="none" stroke="#53A5B6" stroke-width="2" stroke-miterlimit="10" d="M483,348.1"/>
		<path fill="none" stroke="#53A5B6" stroke-width="2" stroke-miterlimit="10" d="M517.7,425.1"/>
		<polyline fill="none" stroke="#53A5B6" stroke-width="2" stroke-miterlimit="10" points="559.6,421.5 546.7,337.1 517.3,423.4 
			483,348.1 546.7,337.1 542.2,311.8 484.9,347.6 493.8,292.3 542.2,311.8 493.8,292.3 493.8,292.3 523.1,256.3 485.8,222 		"/>
		<path fill="#53A5B6" d="M446.1,473.1"/>
	</g>
	<g id="Layer_3_copy">
		<g id="Layer_2_copy_52_51_">
			
				<ellipse transform="matrix(0.9669 -0.2551 0.2551 0.9669 -131.7572 143.4731)" fill="#53A5B6" cx="487.2" cy="579.7" rx="5.2" ry="5.1"/>
		</g>
		<g id="Layer_2_copy_52_50_">
			
				<ellipse transform="matrix(0.9669 -0.2551 0.2551 0.9669 -141.8356 122.2214)" fill="#53A5B6" cx="400.3" cy="607.9" rx="5.2" ry="5.1"/>
		</g>
		<g id="Layer_2_copy_52_49_">
			
				<ellipse transform="matrix(0.9669 -0.2551 0.2551 0.9669 -152.0143 112.0854)" fill="#53A5B6" cx="356.1" cy="642.1" rx="5.2" ry="5.1"/>
		</g>
		<g id="Layer_2_copy_52_48_">
			
				<ellipse transform="matrix(0.9669 -0.2551 0.2551 0.9669 -148.354 106.2519)" fill="#53A5B6" cx="335.4" cy="625" rx="5.2" ry="5.1"/>
		</g>
		<g id="Layer_2_copy_52_47_">
			
				<ellipse transform="matrix(0.9669 -0.2551 0.2551 0.9669 -152.9285 98.4914)" fill="#53A5B6" cx="303.2" cy="638.8" rx="5.2" ry="5.1"/>
		</g>
		<g id="Layer_2_copy_52_46_">
			
				<ellipse transform="matrix(0.9669 -0.2551 0.2551 0.9669 -146.2694 95.9164)" fill="#53A5B6" cx="296.6" cy="611.8" rx="5.2" ry="5.1"/>
		</g>
		<g id="Layer_2_copy_52_45_">
			
				<ellipse transform="matrix(0.9669 -0.2551 0.2551 0.9669 -150.4498 85.6302)" fill="#53A5B6" cx="254.9" cy="622.8" rx="5.2" ry="5.1"/>
		</g>
		<g id="Layer_2_copy_52_44_">
			
				<ellipse transform="matrix(0.9669 -0.2551 0.2551 0.9669 -153.8665 73.7825)" fill="#53A5B6" cx="207.5" cy="630.1" rx="5.2" ry="5.1"/>
		</g>
		<g id="Layer_2_copy_52_43_">
			
				<ellipse transform="matrix(0.9669 -0.2551 0.2551 0.9669 -142.4708 67.6759)" fill="#53A5B6" cx="189.7" cy="583.1" rx="5.2" ry="5.1"/>
		</g>
		<g id="Layer_2_copy_52_42_">
			
				<ellipse transform="matrix(0.9669 -0.2551 0.2551 0.9669 -134.4243 71.1534)" fill="#53A5B6" cx="207.1" cy="553.8" rx="5.2" ry="5.1"/>
		</g>
		<g id="Layer_2_copy_52_41_">
			
				<ellipse transform="matrix(0.9669 -0.2551 0.2551 0.9669 -139.919 54.1293)" fill="#53A5B6" cx="138.7" cy="566.5" rx="5.2" ry="5.1"/>
		</g>
		<g id="Layer_2_copy_52_40_">
			
				<ellipse transform="matrix(0.9669 -0.2551 0.2551 0.9669 -132.5908 43.0138)" fill="#53A5B6" cx="99.5" cy="532.7" rx="5.2" ry="5.1"/>
		</g>
		<g id="Layer_2_copy_52_39_">
			
				<ellipse transform="matrix(0.9669 -0.2551 0.2551 0.9669 -122.4094 49.6662)" fill="#53A5B6" cx="130.3" cy="496.7" rx="5.2" ry="5.1"/>
		</g>
		<g id="Layer_2_copy_52_38_">
			
				<ellipse transform="matrix(0.9669 -0.2551 0.2551 0.9669 -107.2267 50.5218)" fill="#53A5B6" cx="141.2" cy="438.6" rx="5.2" ry="5.1"/>
		</g>
		<g id="Layer_2_copy_52_37_">
			
				<ellipse transform="matrix(0.9669 -0.2551 0.2551 0.9669 -123.5341 39.3207)" fill="#53A5B6" cx="89.8" cy="495.9" rx="5.2" ry="5.1"/>
		</g>
		<g id="Layer_2_copy_52_36_">
			
				<ellipse transform="matrix(0.9669 -0.2551 0.2551 0.9669 -112.6417 34.8869)" fill="#53A5B6" cx="78.2" cy="451.7" rx="5.2" ry="5.1"/>
		</g>
		<g id="Layer_2_copy_52_35_">
			
				<ellipse transform="matrix(0.9669 -0.2551 0.2551 0.9669 -89.8062 39.7051)" fill="#53A5B6" cx="108.2" cy="366.1" rx="5.2" ry="5.1"/>
		</g>
		<g id="Layer_2_copy_52_34_">
			
				<ellipse transform="matrix(0.9669 -0.2551 0.2551 0.9669 -91.9519 28.5955)" fill="#53A5B6" cx="64.3" cy="368.8" rx="5.2" ry="5.1"/>
		</g>
		<g id="Layer_2_copy_52_33_">
			
				<ellipse transform="matrix(0.9669 -0.2551 0.2551 0.9669 -86.3892 33.528)" fill="#53A5B6" cx="86.1" cy="349.8" rx="5.2" ry="5.1"/>
		</g>
		<g id="Layer_2_copy_52_32_">
			
				<ellipse transform="matrix(0.9669 -0.2551 0.2551 0.9669 -79.3413 39.1757)" fill="#53A5B6" cx="111.4" cy="325.5" rx="5.2" ry="5.1"/>
		</g>
		<g id="Layer_2_copy_52_31_">
			
				<ellipse transform="matrix(0.9669 -0.2551 0.2551 0.9669 -79.3413 39.1757)" fill="#53A5B6" cx="111.4" cy="325.5" rx="5.2" ry="5.1"/>
		</g>
		<g id="Layer_2_copy_52_30_">
			
				<ellipse transform="matrix(0.9669 -0.2551 0.2551 0.9669 -72.2498 46.6589)" fill="#53A5B6" cx="143.8" cy="301.9" rx="5.2" ry="5.1"/>
		</g>
		<g id="Layer_2_copy_52_29_">
			
				<ellipse transform="matrix(0.9669 -0.2551 0.2551 0.9669 -66.5479 39.7159)" fill="#53A5B6" cx="119.8" cy="276.4" rx="5.2" ry="5.1"/>
		</g>
		<g id="Layer_2_copy_52_28_">
			
				<ellipse transform="matrix(0.9669 -0.2551 0.2551 0.9669 -58.4297 45.6485)" fill="#53A5B6" cx="146.8" cy="248.1" rx="5.2" ry="5.1"/>
		</g>
		<g id="Layer_2_copy_52_27_">
			
				<ellipse transform="matrix(0.9669 -0.2551 0.2551 0.9669 -75.5615 30.0918)" fill="#53A5B6" cx="78.2" cy="306.3" rx="5.2" ry="5.1"/>
		</g>
		<g id="Layer_2_copy_52_26_">
			
				<ellipse transform="matrix(0.9669 -0.2551 0.2551 0.9669 -53.2103 63.5862)" fill="#53A5B6" cx="218.5" cy="236.9" rx="5.2" ry="5.1"/>
		</g>
		<g id="Layer_2_copy_52_25_">
			
				<ellipse transform="matrix(0.9669 -0.2551 0.2551 0.9669 -48.4604 41.5973)" fill="#53A5B6" cx="136.1" cy="207.6" rx="5.2" ry="5.1"/>
		</g>
		<g id="Layer_2_copy_52_24_">
			
				<ellipse transform="matrix(0.9669 -0.2551 0.2551 0.9669 -38.6405 63.0936)" fill="#53A5B6" cx="223.9" cy="180.5" rx="5.2" ry="5.1"/>
		</g>
		<g id="Layer_2_copy_52_23_">
			
				<ellipse transform="matrix(0.9669 -0.2551 0.2551 0.9669 -40.7604 71.5621)" fill="#53A5B6" cx="255.5" cy="192.9" rx="5.2" ry="5.1"/>
		</g>
		<g id="Layer_2_copy_52_22_">
			
				<ellipse transform="matrix(0.9669 -0.2551 0.2551 0.9669 -32.0422 78.3815)" fill="#53A5B6" cx="286.1" cy="162.7" rx="5.2" ry="5.1"/>
		</g>
		<g id="Layer_2_copy_52_21_">
			
				<ellipse transform="matrix(0.9669 -0.2551 0.2551 0.9669 -29.0499 74.2412)" fill="#53A5B6" cx="271.7" cy="149.1" rx="5.2" ry="5.1"/>
		</g>
		<g id="Layer_2_copy_52_20_">
			
				<ellipse transform="matrix(0.9669 -0.2551 0.2551 0.9669 -27.5102 86.9211)" fill="#53A5B6" cx="321.3" cy="149.5" rx="5.2" ry="5.1"/>
		</g>
		<g id="Layer_2_copy_52_19_">
			
				<ellipse transform="matrix(0.9669 -0.2551 0.2551 0.9669 -34.9064 89.4498)" fill="#53A5B6" cx="327.4" cy="179.3" rx="5.2" ry="5.1"/>
		</g>
		<g id="Layer_2_copy_52_18_">
			
				<ellipse transform="matrix(0.9669 -0.2551 0.2551 0.9669 -30.5049 100.2468)" fill="#53A5B6" cx="371.2" cy="167.7" rx="5.2" ry="5.1"/>
		</g>
		<g id="Layer_2_copy_52_17_">
			
				<ellipse transform="matrix(0.9669 -0.2551 0.2551 0.9669 -27.1014 111.5111)" fill="#53A5B6" cx="416.3" cy="160.2" rx="5.2" ry="5.1"/>
		</g>
		<g id="Layer_2_copy_52_16_">
			
				<ellipse transform="matrix(0.9669 -0.2551 0.2551 0.9669 -38.9046 117.7773)" fill="#53A5B6" cx="434.6" cy="208.9" rx="5.2" ry="5.1"/>
		</g>
		<g id="Layer_2_copy_52_15_">
			
				<ellipse transform="matrix(0.9669 -0.2551 0.2551 0.9669 -46.0514 113.6238)" fill="#53A5B6" cx="415" cy="234.3" rx="5.2" ry="5.1"/>
		</g>
		<g id="Layer_2_copy_52_14_">
			
				<ellipse transform="matrix(0.9669 -0.2551 0.2551 0.9669 -40.466 131.7059)" fill="#53A5B6" cx="487.5" cy="221.9" rx="5.2" ry="5.1"/>
		</g>
		<g id="Layer_2_copy_52_13_">
			
				<ellipse transform="matrix(0.9669 -0.2551 0.2551 0.9669 -57.6098 135.7734)" fill="#53A5B6" cx="494.6" cy="290" rx="5.2" ry="5.1"/>
		</g>
		<g id="Layer_2_copy_52_12_">
			
				<ellipse transform="matrix(0.9669 -0.2551 0.2551 0.9669 -48.2488 141.7226)" fill="#53A5B6" cx="522.2" cy="256.9" rx="5.2" ry="5.1"/>
		</g>
		<g id="Layer_2_copy_52_11_">
			
				<ellipse transform="matrix(0.9669 -0.2551 0.2551 0.9669 -62.1789 148.8502)" fill="#53A5B6" cx="542.7" cy="314.1" rx="5.2" ry="5.1"/>
		</g>
		<g id="Layer_2_copy_52_10_">
			
				<ellipse transform="matrix(0.9669 -0.2551 0.2551 0.9669 -72.9194 134.7389)" fill="#53A5B6" cx="483" cy="348.5" rx="5.2" ry="5.1"/>
		</g>
		<g id="Layer_2_copy_52_9_">
			
				<ellipse transform="matrix(0.9669 -0.2551 0.2551 0.9669 -68.0813 151.2458)" fill="#53A5B6" cx="549" cy="338.1" rx="5.2" ry="5.1"/>
		</g>
		<g id="Layer_2_copy_52_8_">
			
				<ellipse transform="matrix(0.9669 -0.2551 0.2551 0.9669 -91.2393 146.5169)" fill="#53A5B6" cx="519.2" cy="425" rx="5.2" ry="5.1"/>
		</g>
		<g id="Layer_2_copy_52_7_">
			
				<ellipse transform="matrix(0.9669 -0.2551 0.2551 0.9669 -88.5887 156.5253)" fill="#53A5B6" cx="559.1" cy="419.8" rx="5.2" ry="5.1"/>
		</g>
		<g id="Layer_2_copy_52_6_">
			
				<ellipse transform="matrix(0.9669 -0.2551 0.2551 0.9669 -94.2834 152.1617)" fill="#53A5B6" cx="539.5" cy="439.6" rx="5.2" ry="5.1"/>
		</g>
		<g id="Layer_2_copy_52_5_">
			
				<ellipse transform="matrix(0.9669 -0.2551 0.2551 0.9669 -105.3561 155.2898)" fill="#53A5B6" cx="546" cy="483.8" rx="5.2" ry="5.1"/>
		</g>
		<g id="Layer_2_copy_52_4_">
			
				<ellipse transform="matrix(0.9669 -0.2551 0.2551 0.9669 -101.0908 146.2266)" fill="#53A5B6" cx="513.2" cy="462.8" rx="5.2" ry="5.1"/>
		</g>
		<g id="Layer_2_copy_52_3_">
			
				<ellipse transform="matrix(0.9669 -0.2551 0.2551 0.9669 -115.2435 146.7437)" fill="#53A5B6" cx="508.1" cy="517.7" rx="5.2" ry="5.1"/>
		</g>
		<g id="Layer_2_copy_52_2_">
			
				<ellipse transform="matrix(0.9669 -0.2551 0.2551 0.9669 -108.2047 138.9614)" fill="#53A5B6" cx="481.6" cy="486.6" rx="5.2" ry="5.1"/>
		</g>
		<g id="Layer_2_copy_52_1_">
			
				<ellipse transform="matrix(0.9669 -0.2551 0.2551 0.9669 -122.5333 140.2153)" fill="#53A5B6" cx="479.3" cy="542.5" rx="5.2" ry="5.1"/>
		</g>
		<g id="Layer_2_copy_52">
			
				<ellipse transform="matrix(0.9669 -0.2551 0.2551 0.9669 -126.2471 122.05)" fill="#53A5B6" cx="407.4" cy="547.7" rx="5.2" ry="5.1"/>
		</g>
		<g id="Layer_55_copy">
		</g>
	</g>
</g>
<g id="Layer_56">
	<g id="Layer_1_1_">
		<polygon fill="none" stroke="#53A5B6" stroke-width="2" stroke-miterlimit="10" points="33.2,291.5 60,277.3 82.2,300.1 		"/>
		<path fill="none" d="M60.5,274.8"/>
		<polygon fill="none" stroke="#53A5B6" stroke-width="2" stroke-miterlimit="10" points="67.5,225.3 100.9,258.6 60,277.3 		"/>
		<polygon fill="none" stroke="#53A5B6" stroke-width="2" stroke-miterlimit="10" points="124.7,197.4 67.5,225.3 100.9,258.6 		"/>
		<polygon fill="none" stroke="#53A5B6" stroke-width="2" stroke-miterlimit="10" points="141.3,240.9 124.7,197.4 100.9,258.6 		
			"/>
		<polygon fill="none" stroke="#53A5B6" stroke-width="2" stroke-miterlimit="10" points="141.3,240.9 124.7,197.4 161.6,177.7 		
			"/>
		<polygon fill="none" stroke="#53A5B6" stroke-width="2" stroke-miterlimit="10" points="161.6,132.7 124.7,197.4 161.6,177.7 		
			"/>
		<polygon fill="none" stroke="#53A5B6" stroke-width="2" stroke-miterlimit="10" points="245.4,193.4 161.6,177.7 161.6,132.7 		
			"/>
		<polyline fill="none" stroke="#53A5B6" stroke-width="2" stroke-miterlimit="10" points="161.6,132.7 271.7,126.7 247.5,193.5 
			141.3,240.9 		"/>
		<polygon fill="none" stroke="#53A5B6" stroke-width="2" stroke-miterlimit="10" points="306.1,153.5 271.7,126.7 351.1,126.7 		
			"/>
		<polygon fill="none" stroke="#53A5B6" stroke-width="2" stroke-miterlimit="10" points="351.1,126.7 333.4,100.9 271.7,126.7 		
			"/>
		<path fill="none" d="M372.8,141.3"/>
		<path fill="none" d="M385.9,149.8"/>
		<polygon fill="none" stroke="#53A5B6" stroke-width="2" stroke-miterlimit="10" points="391.5,121.1 391.5,152 351.1,126.7 		"/>
		<polygon fill="none" stroke="#53A5B6" stroke-width="2" stroke-miterlimit="10" points="442.5,156.5 391.5,152 391.5,121.1 		"/>
		<polygon fill="none" stroke="#53A5B6" stroke-width="2" stroke-miterlimit="10" points="498.7,160 442.5,156.5 505.2,218.7 		"/>
		<polygon fill="none" stroke="#53A5B6" stroke-width="2" stroke-miterlimit="10" points="476.4,246.5 557.8,253.5 505.2,218.7 		
			"/>
		<polygon fill="none" stroke="#53A5B6" stroke-width="2" stroke-miterlimit="10" points="551.2,282.9 557.8,253.5 593.2,303.6 
			547.2,335.4 		"/>
		<polygon fill="none" stroke="#53A5B6" stroke-width="2" stroke-miterlimit="10" points="593.2,348.6 549.2,335.4 593.2,303.6 		
			"/>
		<polygon fill="none" stroke="#53A5B6" stroke-width="2" stroke-miterlimit="10" points="517.1,398.1 547.2,335.4 593.2,348.6 
			520.4,398.1 593.2,348.6 593.2,402.7 		"/>
		<polygon fill="none" stroke="#53A5B6" stroke-width="2" stroke-miterlimit="10" points="584.1,501.7 533,491.6 593.2,402.7 		"/>
		<polygon fill="none" stroke="#53A5B6" stroke-width="2" stroke-miterlimit="10" points="555.1,516.9 584.1,501.7 533,491.6 		"/>
		<polygon fill="none" stroke="#53A5B6" stroke-width="2" stroke-miterlimit="10" points="548.2,569 517.1,537.1 555.1,516.9 		"/>
		<polygon fill="none" stroke="#53A5B6" stroke-width="2" stroke-miterlimit="10" points="492.6,594.2 517.1,537.1 548.7,571.5 
			548.2,569 		"/>
		<polygon fill="none" stroke="#53A5B6" stroke-width="2" stroke-miterlimit="10" points="475.4,554.3 492.6,594.2 517.1,537.1 		
			"/>
		<polygon fill="none" stroke="#53A5B6" stroke-width="2" stroke-miterlimit="10" points="453.2,614.9 492.6,594.2 475.4,554.3 		
			"/>
		<polygon fill="none" stroke="#53A5B6" stroke-width="2" stroke-miterlimit="10" points="475.4,554.3 367.7,603.8 453.2,614.9 		
			"/>
		<polygon fill="none" stroke="#53A5B6" stroke-width="2" stroke-miterlimit="10" points="453.2,614.9 453.2,664.5 367.7,603.8 		
			"/>
		<polygon fill="none" stroke="#53A5B6" stroke-width="2" stroke-miterlimit="10" points="344.6,669 367.7,603.8 453.2,664.5 		"/>
		<polygon fill="none" stroke="#53A5B6" stroke-width="2" stroke-miterlimit="10" points="344.6,669 312.2,644.3 367.7,603.8 		"/>
		<polygon fill="none" stroke="#53A5B6" stroke-width="2" stroke-miterlimit="10" points="312.2,644.3 225.7,641.2 223.7,675.6 
			263.7,669 		"/>
		<polygon fill="none" stroke="#53A5B6" stroke-width="2" stroke-miterlimit="10" points="282.4,693.8 263.7,669 344.6,669 		"/>
		<polygon fill="none" stroke="#53A5B6" stroke-width="2" stroke-miterlimit="10" points="172.1,641.2 172.1,639.2 225.7,641.2 
			223.7,675.6 		"/>
		<polygon fill="none" stroke="#53A5B6" stroke-width="2" stroke-miterlimit="10" points="172.1,641.2 117.1,636.5 112,573 		"/>
		<polygon fill="none" stroke="#53A5B6" stroke-width="2" stroke-miterlimit="10" points="210.6,601.8 112,573 171.6,639.2 		"/>
		<polygon fill="none" stroke="#53A5B6" stroke-width="2" stroke-miterlimit="10" points="57.4,542.9 112,573 142.1,549.7 		"/>
		<polygon fill="none" stroke="#53A5B6" stroke-width="2" stroke-miterlimit="10" points="69.5,459.3 142.1,549.7 55.4,542.9 		"/>
		<path fill="none" stroke="#53A5B6" stroke-width="2" stroke-miterlimit="10" d="M98.7,398.6"/>
		<path fill="none" stroke="#53A5B6" stroke-width="2" stroke-miterlimit="10" d="M82.2,300.1"/>
		<polyline fill="none" stroke="#53A5B6" stroke-width="2" stroke-miterlimit="10" points="33.2,291.5 22.6,392 82.2,302.1 
			98.7,398.6 22.6,392 20,422.4 96.3,398.6 69.5,459.3 20,422.4 69.5,459.3 69.5,459.3 25.1,491.6 57.4,542.2 		"/>
		<path fill="#53A5B6" d="M178.7,266.7"/>
	</g>
	<g id="Layer_3">
		<g id="Layer_2">
			<ellipse fill="#53A5B6" cx="163.7" cy="132.7" rx="6.2" ry="6.1"/>
		</g>
		<g id="Layer_2_copy">
			<ellipse fill="#53A5B6" cx="271.7" cy="126.7" rx="6.2" ry="6.1"/>
		</g>
		<g id="Layer_2_copy_2">
			<ellipse fill="#53A5B6" cx="332.7" cy="100.9" rx="6.2" ry="6.1"/>
		</g>
		<g id="Layer_2_copy_3">
			<ellipse fill="#53A5B6" cx="351.1" cy="126.7" rx="6.2" ry="6.1"/>
		</g>
		<g id="Layer_2_copy_4">
			<ellipse fill="#53A5B6" cx="392.1" cy="120.6" rx="6.2" ry="6.1"/>
		</g>
		<g id="Layer_2_copy_5">
			<ellipse fill="#53A5B6" cx="391.5" cy="153.5" rx="6.2" ry="6.1"/>
		</g>
		<g id="Layer_2_copy_6">
			<ellipse fill="#53A5B6" cx="442.5" cy="153.5" rx="6.2" ry="6.1"/>
		</g>
		<g id="Layer_2_copy_7">
			<ellipse fill="#53A5B6" cx="499.1" cy="159.5" rx="6.2" ry="6.1"/>
		</g>
		<g id="Layer_2_copy_8">
			<ellipse fill="#53A5B6" cx="505.2" cy="218.7" rx="6.2" ry="6.1"/>
		</g>
		<g id="Layer_2_copy_9">
			<ellipse fill="#53A5B6" cx="476.4" cy="246.9" rx="6.2" ry="6.1"/>
		</g>
		<g id="Layer_2_copy_10">
			<ellipse fill="#53A5B6" cx="558.6" cy="253" rx="6.2" ry="6.1"/>
		</g>
		<g id="Layer_2_copy_11">
			<ellipse fill="#53A5B6" cx="593.2" cy="303.6" rx="6.2" ry="6.1"/>
		</g>
		<g id="Layer_2_copy_12">
			<ellipse fill="#53A5B6" cx="547.2" cy="335.4" rx="6.2" ry="6.1"/>
		</g>
		<g id="Layer_2_copy_13">
			<ellipse fill="#53A5B6" cx="517.1" cy="398.6" rx="6.2" ry="6.1"/>
		</g>
		<g id="Layer_2_copy_14">
			<ellipse fill="#53A5B6" cx="593.2" cy="348.6" rx="6.2" ry="6.1"/>
		</g>
		<g id="Layer_2_copy_15">
			<ellipse fill="#53A5B6" cx="593.2" cy="402.7" rx="6.2" ry="6.1"/>
		</g>
		<g id="Layer_2_copy_16">
			<ellipse fill="#53A5B6" cx="533" cy="491.6" rx="6.2" ry="6.1"/>
		</g>
		<g id="Layer_2_copy_17">
			<ellipse fill="#53A5B6" cx="584.1" cy="501.7" rx="6.2" ry="6.1"/>
		</g>
		<g id="Layer_2_copy_18">
			<ellipse fill="#53A5B6" cx="553.4" cy="516.9" rx="6.2" ry="6.1"/>
		</g>
		<g id="Layer_2_copy_19">
			<ellipse fill="#53A5B6" cx="517.1" cy="537.1" rx="6.2" ry="6.1"/>
		</g>
		<g id="Layer_2_copy_20">
			<ellipse fill="#53A5B6" cx="517.1" cy="537.1" rx="6.2" ry="6.1"/>
		</g>
		<g id="Layer_2_copy_21">
			<ellipse fill="#53A5B6" cx="472.9" cy="554.3" rx="6.2" ry="6.1"/>
		</g>
		<g id="Layer_2_copy_22">
			<ellipse fill="#53A5B6" cx="492.6" cy="590.7" rx="6.2" ry="6.1"/>
		</g>
		<g id="Layer_2_copy_23">
			<ellipse fill="#53A5B6" cx="453.2" cy="614.9" rx="6.2" ry="6.1"/>
		</g>
		<g id="Layer_2_copy_24">
			<ellipse fill="#53A5B6" cx="549.2" cy="569" rx="6.2" ry="6.1"/>
		</g>
		<g id="Layer_2_copy_25">
			<ellipse fill="#53A5B6" cx="367.7" cy="606.1" rx="6.2" ry="6.1"/>
		</g>
		<g id="Layer_2_copy_26">
			<ellipse fill="#53A5B6" cx="453.2" cy="664.5" rx="6.2" ry="6.1"/>
		</g>
		<g id="Layer_2_copy_27">
			<ellipse fill="#53A5B6" cx="344.6" cy="669" rx="6.2" ry="6.1"/>
		</g>
		<g id="Layer_2_copy_28">
			<ellipse fill="#53A5B6" cx="312.2" cy="645.3" rx="6.2" ry="6.1"/>
		</g>
		<g id="Layer_2_copy_29">
			<ellipse fill="#53A5B6" cx="268" cy="670.5" rx="6.2" ry="6.1"/>
		</g>
		<g id="Layer_2_copy_30">
			<ellipse fill="#53A5B6" cx="280.3" cy="690.5" rx="6.2" ry="6.1"/>
		</g>
		<g id="Layer_2_copy_31">
			<ellipse fill="#53A5B6" cx="223.7" cy="675.1" rx="6.2" ry="6.1"/>
		</g>
		<g id="Layer_2_copy_32">
			<ellipse fill="#53A5B6" cx="225.7" cy="639.2" rx="6.2" ry="6.1"/>
		</g>
		<g id="Layer_2_copy_33">
			<ellipse fill="#53A5B6" cx="172.1" cy="639.2" rx="6.2" ry="6.1"/>
		</g>
		<g id="Layer_2_copy_34">
			<ellipse fill="#53A5B6" cx="118.2" cy="634.1" rx="6.2" ry="6.1"/>
		</g>
		<g id="Layer_2_copy_35">
			<ellipse fill="#53A5B6" cx="112" cy="573" rx="6.2" ry="6.1"/>
		</g>
		<g id="Layer_2_copy_36">
			<ellipse fill="#53A5B6" cx="142.1" cy="549.7" rx="6.2" ry="6.1"/>
		</g>
		<g id="Layer_2_copy_37">
			<ellipse fill="#53A5B6" cx="55.4" cy="542.2" rx="6.2" ry="6.1"/>
		</g>
		<g id="Layer_2_copy_38">
			<ellipse fill="#53A5B6" cx="67.9" cy="462.1" rx="6.2" ry="6.1"/>
		</g>
		<g id="Layer_2_copy_39">
			<ellipse fill="#53A5B6" cx="26.3" cy="491.6" rx="6.2" ry="6.1"/>
		</g>
		<g id="Layer_2_copy_40">
			<ellipse fill="#53A5B6" cx="20" cy="419.8" rx="6.2" ry="6.1"/>
		</g>
		<g id="Layer_2_copy_41">
			<ellipse fill="#53A5B6" cx="98.7" cy="398.6" rx="6.2" ry="6.1"/>
		</g>
		<g id="Layer_2_copy_42">
			<ellipse fill="#53A5B6" cx="20" cy="390.5" rx="6.2" ry="6.1"/>
		</g>
		<g id="Layer_2_copy_43">
			<ellipse fill="#53A5B6" cx="80.4" cy="300.1" rx="6.2" ry="6.1"/>
		</g>
		<g id="Layer_2_copy_44">
			<ellipse fill="#53A5B6" cx="33.2" cy="294" rx="6.2" ry="6.1"/>
		</g>
		<g id="Layer_2_copy_45">
			<ellipse fill="#53A5B6" cx="61.6" cy="277.3" rx="6.2" ry="6.1"/>
		</g>
		<g id="Layer_2_copy_46">
			<ellipse fill="#53A5B6" cx="67.5" cy="224.8" rx="6.2" ry="6.1"/>
		</g>
		<g id="Layer_2_copy_47">
			<ellipse fill="#53A5B6" cx="98.7" cy="258.6" rx="6.2" ry="6.1"/>
		</g>
		<g id="Layer_2_copy_48">
			<ellipse fill="#53A5B6" cx="121.1" cy="197.4" rx="6.2" ry="6.1"/>
		</g>
		<g id="Layer_2_copy_49">
			<ellipse fill="#53A5B6" cx="142.1" cy="240.9" rx="6.2" ry="6.1"/>
		</g>
		<g id="Layer_2_copy_50">
			<ellipse fill="#53A5B6" cx="161.6" cy="177.7" rx="6.2" ry="6.1"/>
		</g>
		<g id="Layer_2_copy_51">
			<ellipse fill="#53A5B6" cx="245.4" cy="193.4" rx="6.2" ry="6.1"/>
		</g>
		<g id="Layer_55">
		</g>
	</g>
</g>
</svg>
